<?xml version="1.0" encoding="UTF-8" standalone="no"?>
<!DOCTYPE svg PUBLIC "-//W3C//DTD SVG 1.1//EN"
 "http://www.w3.org/Graphics/SVG/1.1/DTD/svg11.dtd">
<!-- Generated by graphviz version 2.38.0 (20140413.2041)
 -->
<!-- Title: mygraph Pages: 1 -->
<svg width="422pt" height="421pt"
 viewBox="0.00 0.00 421.50 421.00" xmlns="http://www.w3.org/2000/svg" xmlns:xlink="http://www.w3.org/1999/xlink">
<g id="graph0" class="graph" transform="scale(1 1) rotate(0) translate(4 417)">
<title>mygraph</title>
<polygon fill="white" stroke="none" points="-4,4 -4,-417 417.5,-417 417.5,4 -4,4"/>
<!-- l0 -->
<g id="node1" class="node"><title>l0</title>
<text text-anchor="middle" x="59.5" y="-391.3" font-family="Times,serif" font-size="14.00">directory</text>
</g>
<!-- l1 -->
<g id="node2" class="node"><title>l1</title>
<polygon fill="lightpink" stroke="lightpink" points="100,-341 19,-341 19,-305 100,-305 100,-341"/>
<text text-anchor="middle" x="59.5" y="-319.3" font-family="Times,serif" font-size="14.00"> &#160;Base key &#160;</text>
</g>
<!-- l0&#45;&gt;l1 -->
<!-- l2 -->
<g id="node3" class="node"><title>l2</title>
<polygon fill="lightpink" stroke="lightpink" points="97.5,-269 11.5,-269 11.5,-233 97.5,-233 97.5,-269"/>
<text text-anchor="middle" x="54.5" y="-247.3" font-family="Times,serif" font-size="14.00"> &#160;Parent key </text>
</g>
<!-- l1&#45;&gt;l2 -->
<g id="edge2" class="edge"><title>l1&#45;&gt;l2</title>
<path fill="none" stroke="black" d="M58.264,-304.697C57.7131,-296.983 57.0509,-287.712 56.4366,-279.112"/>
<polygon fill="black" stroke="black" points="59.9254,-278.83 55.7217,-269.104 52.9432,-279.328 59.9254,-278.83"/>
</g>
<!-- m1 -->
<g id="node7" class="node"><title>m1</title>
<polygon fill="lightpink" stroke="lightpink" points="199,-341 118,-341 118,-305 199,-305 199,-341"/>
<text text-anchor="middle" x="158.5" y="-319.3" font-family="Times,serif" font-size="14.00"> &#160;Base key &#160;</text>
</g>
<!-- l1&#45;&gt;m1 -->
<g id="edge11" class="edge"><title>l1&#45;&gt;m1</title>
<path fill="none" stroke="black" d="M100.105,-309.936C102.7,-309.682 105.295,-309.539 107.89,-309.507"/>
<polygon fill="black" stroke="black" points="107.757,-313.004 117.898,-309.936 108.057,-306.011 107.757,-313.004"/>
</g>
<!-- l3 -->
<g id="node4" class="node"><title>l3</title>
<polygon fill="lightpink" stroke="lightpink" points="91,-125 0,-125 0,-89 91,-89 91,-125"/>
<text text-anchor="middle" x="45.5" y="-103.3" font-family="Times,serif" font-size="14.00">Metadata key</text>
</g>
<!-- l2&#45;&gt;l3 -->
<g id="edge3" class="edge"><title>l2&#45;&gt;l3</title>
<path fill="none" stroke="black" d="M53.4144,-232.871C51.8805,-208.67 49.0627,-164.211 47.2362,-135.393"/>
<polygon fill="black" stroke="black" points="50.7151,-134.948 46.5895,-125.189 43.7291,-135.391 50.7151,-134.948"/>
</g>
<!-- m2 -->
<g id="node8" class="node"><title>m2</title>
<polygon fill="lightpink" stroke="lightpink" points="201.5,-269 115.5,-269 115.5,-233 201.5,-233 201.5,-269"/>
<text text-anchor="middle" x="158.5" y="-247.3" font-family="Times,serif" font-size="14.00"> &#160;Parent key </text>
</g>
<!-- l2&#45;&gt;m2 -->
<!-- l4 -->
<g id="node5" class="node"><title>l4</title>
<text text-anchor="middle" x="45.5" y="-22.8" font-family="Times,serif" font-size="14.00">ianopolous</text>
</g>
<!-- l3&#45;&gt;l4 -->
<g id="edge4" class="edge"><title>l3&#45;&gt;l4</title>
<path fill="none" stroke="black" d="M45.5,-88.9667C45.5,-78.9885 45.5,-66.154 45.5,-54.796"/>
<polygon fill="black" stroke="black" points="49.0001,-54.5001 45.5,-44.5001 42.0001,-54.5001 49.0001,-54.5001"/>
</g>
<!-- m0 -->
<g id="node6" class="node"><title>m0</title>
<text text-anchor="middle" x="158.5" y="-391.3" font-family="Times,serif" font-size="14.00">sub&#45;directory</text>
</g>
<!-- m0&#45;&gt;m1 -->
<!-- m1&#45;&gt;l1 -->
<!-- m1&#45;&gt;m2 -->
<g id="edge6" class="edge"><title>m1&#45;&gt;m2</title>
<path fill="none" stroke="black" d="M158.5,-304.697C158.5,-296.983 158.5,-287.712 158.5,-279.112"/>
<polygon fill="black" stroke="black" points="162,-279.104 158.5,-269.104 155,-279.104 162,-279.104"/>
</g>
<!-- r2 -->
<g id="node12" class="node"><title>r2</title>
<polygon fill="lightpink" stroke="lightpink" points="301.5,-269 219.5,-269 219.5,-233 301.5,-233 301.5,-269"/>
<text text-anchor="middle" x="260.5" y="-247.3" font-family="Times,serif" font-size="14.00"> Parent key </text>
</g>
<!-- m1&#45;&gt;r2 -->
<g id="edge13" class="edge"><title>m1&#45;&gt;r2</title>
<path fill="none" stroke="black" d="M183.452,-304.876C196.542,-295.893 212.76,-284.763 226.936,-275.034"/>
<polygon fill="black" stroke="black" points="229.187,-277.734 235.452,-269.19 225.226,-271.962 229.187,-277.734"/>
</g>
<!-- m2&#45;&gt;l2 -->
<g id="edge16" class="edge"><title>m2&#45;&gt;l2</title>
<path fill="none" stroke="black" d="M115.177,-237.876C112.7,-237.661 110.223,-237.539 107.746,-237.508"/>
<polygon fill="black" stroke="black" points="107.421,-234.018 97.5625,-237.899 107.689,-241.012 107.421,-234.018"/>
</g>
<!-- m3 -->
<g id="node9" class="node"><title>m3</title>
<polygon fill="lightpink" stroke="lightpink" points="200,-125 109,-125 109,-89 200,-89 200,-125"/>
<text text-anchor="middle" x="154.5" y="-103.3" font-family="Times,serif" font-size="14.00">Metadata key</text>
</g>
<!-- m2&#45;&gt;m3 -->
<g id="edge7" class="edge"><title>m2&#45;&gt;m3</title>
<path fill="none" stroke="black" d="M158.018,-232.871C157.336,-208.67 156.083,-164.211 155.272,-135.393"/>
<polygon fill="black" stroke="black" points="158.764,-135.087 154.984,-125.189 151.767,-135.284 158.764,-135.087"/>
</g>
<!-- m2&#45;&gt;r2 -->
<!-- m4 -->
<g id="node10" class="node"><title>m4</title>
<text text-anchor="middle" x="151.5" y="-22.8" font-family="Times,serif" font-size="14.00">work</text>
</g>
<!-- m3&#45;&gt;m4 -->
<g id="edge8" class="edge"><title>m3&#45;&gt;m4</title>
<path fill="none" stroke="black" d="M153.849,-88.9667C153.468,-78.9885 152.977,-66.154 152.543,-54.796"/>
<polygon fill="black" stroke="black" points="156.029,-54.3591 152.15,-44.5001 149.034,-54.6265 156.029,-54.3591"/>
</g>
<!-- r0 -->
<g id="node11" class="node"><title>r0</title>
<text text-anchor="middle" x="260.5" y="-391.3" font-family="Times,serif" font-size="14.00">file</text>
</g>
<!-- r0&#45;&gt;r2 -->
<!-- r2&#45;&gt;m2 -->
<g id="edge14" class="edge"><title>r2&#45;&gt;m2</title>
<path fill="none" stroke="black" d="M219.498,-238.019C216.878,-237.747 214.258,-237.582 211.638,-237.524"/>
<polygon fill="black" stroke="black" points="211.421,-234.029 201.531,-237.83 211.633,-241.025 211.421,-234.029"/>
</g>
<!-- r3 -->
<g id="node13" class="node"><title>r3</title>
<polygon fill="lightpink" stroke="lightpink" points="309,-125 218,-125 218,-89 309,-89 309,-125"/>
<text text-anchor="middle" x="263.5" y="-103.3" font-family="Times,serif" font-size="14.00">Metadata key</text>
</g>
<!-- r2&#45;&gt;r3 -->
<g id="edge9" class="edge"><title>r2&#45;&gt;r3</title>
<path fill="none" stroke="black" d="M260.862,-232.871C261.373,-208.67 262.312,-164.211 262.921,-135.393"/>
<polygon fill="black" stroke="black" points="266.425,-135.261 263.137,-125.189 259.426,-135.113 266.425,-135.261"/>
</g>
<!-- r5 -->
<g id="node15" class="node"><title>r5</title>
<polygon fill="lightpink" stroke="lightpink" points="388,-197 315,-197 315,-161 388,-161 388,-197"/>
<text text-anchor="middle" x="351.5" y="-175.3" font-family="Times,serif" font-size="14.00"> Data key </text>
</g>
<!-- r2&#45;&gt;r5 -->
<g id="edge18" class="edge"><title>r2&#45;&gt;r5</title>
<path fill="none" stroke="black" d="M282.994,-232.697C294.455,-223.881 308.558,-213.032 320.984,-203.474"/>
<polygon fill="black" stroke="black" points="323.472,-205.976 329.264,-197.104 319.204,-200.427 323.472,-205.976"/>
</g>
<!-- r4 -->
<g id="node14" class="node"><title>r4</title>
<text text-anchor="middle" x="265.5" y="-37.8" font-family="Times,serif" font-size="14.00">thesis.tex,</text>
<text text-anchor="middle" x="265.5" y="-22.8" font-family="Times,serif" font-size="14.00">2 MiB,</text>
<text text-anchor="middle" x="265.5" y="-7.8" font-family="Times,serif" font-size="14.00">modified: 2009&#45;09&#45;30</text>
</g>
<!-- r3&#45;&gt;r4 -->
<g id="edge10" class="edge"><title>r3&#45;&gt;r4</title>
<path fill="none" stroke="black" d="M263.934,-88.9667C264.126,-81.4475 264.358,-72.3063 264.585,-63.3971"/>
<polygon fill="black" stroke="black" points="268.09,-63.2422 264.846,-53.1563 261.093,-63.0639 268.09,-63.2422"/>
</g>
<!-- rr3 -->
<g id="node16" class="node"><title>rr3</title>
<text text-anchor="middle" x="370.5" y="-103.3" font-family="Times,serif" font-size="14.00">File contents</text>
</g>
<!-- r5&#45;&gt;rr3 -->
<g id="edge19" class="edge"><title>r5&#45;&gt;rr3</title>
<path fill="none" stroke="black" d="M356.197,-160.697C358.313,-152.898 360.862,-143.509 363.218,-134.829"/>
<polygon fill="black" stroke="black" points="366.616,-135.672 365.857,-125.104 359.86,-133.838 366.616,-135.672"/>
</g>
</g>
</svg>
