<?xml version="1.0" encoding="UTF-8" standalone="no"?>
<!DOCTYPE svg PUBLIC "-//W3C//DTD SVG 1.1//EN"
 "http://www.w3.org/Graphics/SVG/1.1/DTD/svg11.dtd">
<!-- Generated by graphviz version 2.38.0 (20140413.2041)
 -->
<!-- Title: mygraph Pages: 1 -->
<svg width="504pt" height="227pt"
 viewBox="0.00 0.00 504.00 226.72" xmlns="http://www.w3.org/2000/svg" xmlns:xlink="http://www.w3.org/1999/xlink">
<g id="graph0" class="graph" transform="scale(0.682894 0.682894) rotate(0) translate(4 328)">
<title>mygraph</title>
<polygon fill="white" stroke="none" points="-4,4 -4,-328 734.035,-328 734.035,4 -4,4"/>
<!-- d1 -->
<g id="node1" class="node"><title>d1</title>
<ellipse fill="none" stroke="darkorange" cx="129.394" cy="-90" rx="67.6881" ry="18"/>
<text text-anchor="middle" x="129.394" y="-86.3" font-family="Times,serif" font-size="14.00">Corenode (PKI)</text>
</g>
<!-- d3 -->
<g id="node2" class="node"><title>d3</title>
<ellipse fill="none" stroke="green" cx="242.394" cy="-18" rx="27" ry="18"/>
<text text-anchor="middle" x="242.394" y="-14.3" font-family="Times,serif" font-size="14.00">Tor</text>
</g>
<!-- d1&#45;&#45;d3 -->
<g id="edge5" class="edge"><title>d1&#45;&#45;d3</title>
<path fill="none" stroke="blue" d="M154.754,-73.2906C175.446,-60.4723 204.243,-42.6337 223.094,-30.9558"/>
</g>
<!-- a1 -->
<g id="node3" class="node"><title>a1</title>
<ellipse fill="none" stroke="darkblue" cx="297.394" cy="-306" rx="28.6953" ry="18"/>
<text text-anchor="middle" x="297.394" y="-302.3" font-family="Times,serif" font-size="14.00">IPFS</text>
</g>
<!-- a2 -->
<g id="node4" class="node"><title>a2</title>
<ellipse fill="none" stroke="purple" cx="297.394" cy="-234" rx="62.2891" ry="18"/>
<text text-anchor="middle" x="297.394" y="-230.3" font-family="Times,serif" font-size="14.00">Peergos server</text>
</g>
<!-- a1&#45;&#45;a2 -->
<g id="edge1" class="edge"><title>a1&#45;&#45;a2</title>
<path fill="none" stroke="red" d="M297.394,-287.697C297.394,-276.846 297.394,-262.917 297.394,-252.104"/>
</g>
<!-- a3 -->
<g id="node5" class="node"><title>a3</title>
<ellipse fill="none" stroke="green" cx="297.394" cy="-162" rx="27" ry="18"/>
<text text-anchor="middle" x="297.394" y="-158.3" font-family="Times,serif" font-size="14.00">Tor</text>
</g>
<!-- a2&#45;&#45;a3 -->
<g id="edge2" class="edge"><title>a2&#45;&#45;a3</title>
<path fill="none" stroke="blue" d="M297.394,-215.697C297.394,-204.846 297.394,-190.917 297.394,-180.104"/>
</g>
<!-- e1 -->
<g id="node10" class="node"><title>e1</title>
<ellipse fill="none" stroke="red" cx="197.394" cy="-162" rx="54.6905" ry="18"/>
<text text-anchor="middle" x="197.394" y="-158.3" font-family="Times,serif" font-size="14.00">Local Client</text>
</g>
<!-- a2&#45;&#45;e1 -->
<g id="edge9" class="edge"><title>a2&#45;&#45;e1</title>
<path fill="none" stroke="red" d="M274.703,-217.116C258.222,-205.579 236.031,-190.046 219.652,-178.58"/>
</g>
<!-- a3&#45;&#45;d3 -->
<g id="edge7" class="edge"><title>a3&#45;&#45;d3</title>
<path fill="none" stroke="blue" d="M295.738,-144.012C293.504,-125.654 288.568,-95.8305 278.394,-72 272.542,-58.2917 262.953,-44.413 255.142,-34.2982"/>
</g>
<!-- b3 -->
<g id="node8" class="node"><title>b3</title>
<ellipse fill="none" stroke="green" cx="242.394" cy="-90" rx="27" ry="18"/>
<text text-anchor="middle" x="242.394" y="-86.3" font-family="Times,serif" font-size="14.00">Tor</text>
</g>
<!-- a3&#45;&#45;b3 -->
<g id="edge6" class="edge"><title>a3&#45;&#45;b3</title>
<path fill="none" stroke="blue" d="M285.46,-145.811C276.235,-134.07 263.525,-117.893 254.305,-106.159"/>
</g>
<!-- b1 -->
<g id="node6" class="node"><title>b1</title>
<ellipse fill="none" stroke="darkblue" cx="62.3945" cy="-234" rx="28.6953" ry="18"/>
<text text-anchor="middle" x="62.3945" y="-230.3" font-family="Times,serif" font-size="14.00">IPFS</text>
</g>
<!-- b2 -->
<g id="node7" class="node"><title>b2</title>
<ellipse fill="none" stroke="purple" cx="62.3945" cy="-162" rx="62.2891" ry="18"/>
<text text-anchor="middle" x="62.3945" y="-158.3" font-family="Times,serif" font-size="14.00">Peergos server</text>
</g>
<!-- b1&#45;&#45;b2 -->
<g id="edge3" class="edge"><title>b1&#45;&#45;b2</title>
<path fill="none" stroke="red" d="M62.3945,-215.697C62.3945,-204.846 62.3945,-190.917 62.3945,-180.104"/>
</g>
<!-- b2&#45;&#45;b3 -->
<g id="edge4" class="edge"><title>b2&#45;&#45;b3</title>
<path fill="none" stroke="blue" d="M101.26,-147.745C130.447,-137.538 171.262,-122.727 206.394,-108 211.239,-105.969 216.38,-103.646 221.214,-101.383"/>
</g>
<!-- b3&#45;&#45;d3 -->
<g id="edge8" class="edge"><title>b3&#45;&#45;d3</title>
<path fill="none" stroke="blue" d="M242.394,-71.6966C242.394,-60.8463 242.394,-46.9167 242.394,-36.1043"/>
</g>
<!-- c -->
<g id="node9" class="node"><title>c</title>
<ellipse fill="none" stroke="purple" cx="625.394" cy="-234" rx="104.782" ry="18"/>
<text text-anchor="middle" x="625.394" y="-230.3" font-family="Times,serif" font-size="14.00">Public Peergos web server</text>
</g>
<!-- c&#45;&#45;a3 -->
<g id="edge11" class="edge"><title>c&#45;&#45;a3</title>
<path fill="none" stroke="blue" d="M562.541,-219.586C489.995,-204.104 374.126,-179.376 323.026,-168.47"/>
</g>
<!-- e2 -->
<g id="node11" class="node"><title>e2</title>
<ellipse fill="none" stroke="red" cx="625.394" cy="-162" rx="51.9908" ry="18"/>
<text text-anchor="middle" x="625.394" y="-158.3" font-family="Times,serif" font-size="14.00">Web Client</text>
</g>
<!-- c&#45;&#45;e2 -->
<g id="edge10" class="edge"><title>c&#45;&#45;e2</title>
<path fill="none" stroke="blue" d="M625.394,-215.697C625.394,-204.846 625.394,-190.917 625.394,-180.104"/>
</g>
<!-- e3 -->
<g id="node12" class="node"><title>e3</title>
<ellipse fill="none" stroke="red" cx="440.394" cy="-234" rx="62.2891" ry="18"/>
<text text-anchor="middle" x="440.394" y="-230.3" font-family="Times,serif" font-size="14.00">Remote Client</text>
</g>
<!-- e3&#45;&#45;a3 -->
<g id="edge12" class="edge"><title>e3&#45;&#45;a3</title>
<path fill="none" stroke="blue" d="M410.068,-218.155C382.685,-204.751 343.08,-185.363 318.851,-173.503"/>
</g>
</g>
</svg>
