<?xml version="1.0" encoding="UTF-8" standalone="no"?>
<!DOCTYPE svg PUBLIC "-//W3C//DTD SVG 1.1//EN"
 "http://www.w3.org/Graphics/SVG/1.1/DTD/svg11.dtd">
<!-- Generated by graphviz version 2.38.0 (20140413.2041)
 -->
<!-- Title: mygraph Pages: 1 -->
<svg width="504pt" height="135pt"
 viewBox="0.00 0.00 504.00 134.71" xmlns="http://www.w3.org/2000/svg" xmlns:xlink="http://www.w3.org/1999/xlink">
<g id="graph0" class="graph" transform="scale(0.617919 0.617919) rotate(0) translate(4 214)">
<title>mygraph</title>
<polygon fill="white" stroke="none" points="-4,4 -4,-214 811.641,-214 811.641,4 -4,4"/>
<!-- d1 -->
<g id="node1" class="node"><title>d1</title>
<ellipse fill="none" stroke="darkorange" cx="580.641" cy="-105" rx="67.6881" ry="18"/>
<text text-anchor="middle" x="580.641" y="-101.3" font-family="Times,serif" font-size="14.00">Corenode (PKI)</text>
</g>
<!-- t -->
<g id="node6" class="node"><title>t</title>
<ellipse fill="none" stroke="green" cx="432.641" cy="-18" rx="38.1938" ry="18"/>
<text text-anchor="middle" x="432.641" y="-14.3" font-family="Times,serif" font-size="14.00">Tor/I2P</text>
</g>
<!-- d1&#45;&#45;t -->
<g id="edge6" class="edge"><title>d1&#45;&#45;t</title>
<path fill="none" stroke="green" d="M553.495,-88.4097C525.623,-72.402 482.685,-47.7419 456.199,-32.5302"/>
<text text-anchor="middle" x="532.641" y="-57.8" font-family="Times,serif" font-size="14.00">Onion</text>
</g>
<!-- a1 -->
<g id="node2" class="node"><title>a1</title>
<ellipse fill="none" stroke="darkblue" cx="728.641" cy="-192" rx="28.6953" ry="18"/>
<text text-anchor="middle" x="728.641" y="-188.3" font-family="Times,serif" font-size="14.00">IPFS</text>
</g>
<!-- a2 -->
<g id="node3" class="node"><title>a2</title>
<ellipse fill="none" stroke="purple" cx="728.641" cy="-105" rx="62.2891" ry="18"/>
<text text-anchor="middle" x="728.641" y="-101.3" font-family="Times,serif" font-size="14.00">Peergos server</text>
</g>
<!-- a1&#45;&#45;a2 -->
<g id="edge1" class="edge"><title>a1&#45;&#45;a2</title>
<path fill="none" stroke="red" d="M728.641,-173.799C728.641,-159.052 728.641,-137.915 728.641,-123.175"/>
<text text-anchor="middle" x="768.141" y="-144.8" font-family="Times,serif" font-size="14.00">HTTP + NaCl</text>
</g>
<!-- a2&#45;&#45;t -->
<g id="edge4" class="edge"><title>a2&#45;&#45;t</title>
<path fill="none" stroke="green" d="M685.916,-91.731C625.878,-74.4905 517.919,-43.4887 464.442,-28.1323"/>
<text text-anchor="middle" x="615.641" y="-57.8" font-family="Times,serif" font-size="14.00">Onion</text>
</g>
<!-- e1 -->
<g id="node8" class="node"><title>e1</title>
<ellipse fill="none" stroke="red" cx="728.641" cy="-18" rx="54.6905" ry="18"/>
<text text-anchor="middle" x="728.641" y="-14.3" font-family="Times,serif" font-size="14.00">Local Client</text>
</g>
<!-- a2&#45;&#45;e1 -->
<g id="edge3" class="edge"><title>a2&#45;&#45;e1</title>
<path fill="none" stroke="red" d="M728.641,-86.799C728.641,-72.0519 728.641,-50.9152 728.641,-36.1754"/>
<text text-anchor="middle" x="768.141" y="-57.8" font-family="Times,serif" font-size="14.00">HTTP + NaCl</text>
</g>
<!-- b1 -->
<g id="node4" class="node"><title>b1</title>
<ellipse fill="none" stroke="darkblue" cx="289.641" cy="-192" rx="28.6953" ry="18"/>
<text text-anchor="middle" x="289.641" y="-188.3" font-family="Times,serif" font-size="14.00">IPFS</text>
</g>
<!-- b2 -->
<g id="node5" class="node"><title>b2</title>
<ellipse fill="none" stroke="purple" cx="289.641" cy="-105" rx="62.2891" ry="18"/>
<text text-anchor="middle" x="289.641" y="-101.3" font-family="Times,serif" font-size="14.00">Peergos server</text>
</g>
<!-- b1&#45;&#45;b2 -->
<g id="edge2" class="edge"><title>b1&#45;&#45;b2</title>
<path fill="none" stroke="red" d="M289.641,-173.799C289.641,-159.052 289.641,-137.915 289.641,-123.175"/>
<text text-anchor="middle" x="329.141" y="-144.8" font-family="Times,serif" font-size="14.00">HTTP + NaCl</text>
</g>
<!-- b2&#45;&#45;t -->
<g id="edge5" class="edge"><title>b2&#45;&#45;t</title>
<path fill="none" stroke="green" d="M315.537,-88.6071C342.419,-72.6282 384.062,-47.8753 409.768,-32.5956"/>
<text text-anchor="middle" x="387.641" y="-57.8" font-family="Times,serif" font-size="14.00">Onion</text>
</g>
<!-- c -->
<g id="node7" class="node"><title>c</title>
<ellipse fill="none" stroke="purple" cx="104.641" cy="-105" rx="104.782" ry="18"/>
<text text-anchor="middle" x="104.641" y="-101.3" font-family="Times,serif" font-size="14.00">Public Peergos web server</text>
</g>
<!-- c&#45;&#45;t -->
<g id="edge7" class="edge"><title>c&#45;&#45;t</title>
<path fill="none" stroke="green" d="M159.911,-89.677C228.558,-71.8873 343.465,-42.1096 399.665,-27.5454"/>
<text text-anchor="middle" x="305.641" y="-57.8" font-family="Times,serif" font-size="14.00">Onion</text>
</g>
<!-- e2 -->
<g id="node9" class="node"><title>e2</title>
<ellipse fill="none" stroke="red" cx="104.641" cy="-18" rx="51.9908" ry="18"/>
<text text-anchor="middle" x="104.641" y="-14.3" font-family="Times,serif" font-size="14.00">Web Client</text>
</g>
<!-- c&#45;&#45;e2 -->
<g id="edge9" class="edge"><title>c&#45;&#45;e2</title>
<path fill="none" stroke="blue" d="M104.641,-86.799C104.641,-72.0519 104.641,-50.9152 104.641,-36.1754"/>
<text text-anchor="middle" x="139.141" y="-57.8" font-family="Times,serif" font-size="14.00">TLS + NaCl</text>
</g>
<!-- e3 -->
<g id="node10" class="node"><title>e3</title>
<ellipse fill="none" stroke="red" cx="432.641" cy="-105" rx="62.2891" ry="18"/>
<text text-anchor="middle" x="432.641" y="-101.3" font-family="Times,serif" font-size="14.00">Remote Client</text>
</g>
<!-- e3&#45;&#45;t -->
<g id="edge8" class="edge"><title>e3&#45;&#45;t</title>
<path fill="none" stroke="green" d="M432.641,-86.799C432.641,-72.0519 432.641,-50.9152 432.641,-36.1754"/>
<text text-anchor="middle" x="449.641" y="-57.8" font-family="Times,serif" font-size="14.00">Onion</text>
</g>
</g>
</svg>
